<svg width="66" height="66" viewBox="0 0 66 66" fill="none" xmlns="http://www.w3.org/2000/svg">
<rect width="66" height="66" rx="10.0253" fill="#EFE8FF"/>
<path d="M47.9468 33.2769H47.9101L43.6484 34.8599C43.0605 35.0628 42.7666 35.7529 42.9503 36.4023C43.134 37.0518 43.7586 37.3765 44.3464 37.1735L48.5714 35.5905C49.4531 35.3064 49.5266 35.5499 49.6001 35.7529C49.6736 35.9558 49.3797 36.1994 49.3429 36.1994C44.4566 39.0407 38.7253 43.7592 37.219 44.4493C35.3086 45.3017 32.4797 44.4087 32.4797 44.4087L25.2421 41.9327V31.8562H26.0504C27.4465 31.8562 31.3775 32.3433 32.8104 34.6163C33.0308 34.9411 33.3615 35.144 33.7288 35.144H39.0927C39.5703 35.144 40.0112 35.5093 40.0479 35.9964V37.4316C40.0479 37.4722 40.0479 37.5128 40.0112 37.5128C40.0112 37.5533 40.0112 37.5533 39.9745 37.5939C39.8275 37.9187 39.5336 38.1622 39.1662 38.1622H31.3408C30.7162 38.1622 30.2386 38.6899 30.2386 39.3799C30.2386 40.0699 30.7162 40.5976 31.3408 40.5976H39.1295C40.1949 40.5976 41.1501 39.9888 41.7012 39.0552V38.974C41.7747 38.8522 41.8482 38.6899 41.9216 38.5275V38.4869C41.9951 38.3246 42.0319 38.2028 42.0686 38.0404C42.0686 37.9998 42.1053 36.8082 42.1053 36.7676C42.1421 36.6053 42.1421 36.4835 42.1788 36.3211V35.7529C42.0319 34.0075 40.6725 32.668 39.0193 32.668H34.2432C31.6715 29.4208 26.2708 29.3802 26.0504 29.3802H22.4867C22.1561 28.4872 21.3478 27.8378 20.3926 27.8378H15.1389C14.5143 27.8378 14.0367 28.3654 14.0367 29.0555C14.0367 29.7455 14.5143 30.2732 15.1389 30.2732H20.3926C20.4293 30.2732 20.4661 30.3138 20.4661 30.3138V42.3386H15.1022C14.4776 42.3386 14 42.8662 14 43.5563C14 44.2463 14.4776 44.774 15.1022 44.774H20.4293C21.2743 44.774 22.0091 44.2463 22.3765 43.5157L31.7817 46.7629C31.8919 46.8035 33.3615 47.25 35.1249 47.25C36.0801 47.25 37.0721 47.1282 37.9906 46.7223C39.9377 45.8699 47.2488 40.1772 50.2981 38.3912C51.3268 37.7824 52.1351 36.3211 51.584 34.8193C51.2901 33.9263 50.3349 32.5056 47.9468 33.2769Z" fill="#8D5FCF"/>
<path d="M26.3286 18.75L23.3868 20.8059L25.2758 24.0078L39.5233 27.3874L40.5761 22.1296L26.3286 18.75ZM43.2591 28.2735C43.7615 28.3927 44.2557 28.0473 44.3652 27.5005L45.0222 24.2196C45.1317 23.6728 44.8143 23.1349 44.3119 23.0158L41.9545 22.4566L40.9017 27.7143L43.2591 28.2735Z" fill="#8D5FCF"/>
</svg>
