<svg width="40" height="40" viewBox="0 0 40 40" fill="none" xmlns="http://www.w3.org/2000/svg">
<g clip-path="url(#clip0_12900_124093)">
<rect width="40" height="40" rx="8" fill="white"/>
<g clip-path="url(#clip1_12900_124093)">
<path d="M14.8918 13.7505L23.5906 28.8174C23.8602 29.285 23.9561 29.8329 23.8614 30.3643C23.7666 30.8957 23.4874 31.3767 23.0729 31.7224C22.6583 32.0682 22.135 32.2565 21.5952 32.2543C21.0554 32.2521 20.5337 32.0594 20.122 31.7103L13.6954 26.1717M13.6954 26.1717C12.5031 26.3173 11.2976 26.0477 10.2819 25.4064C9.26623 24.765 8.5033 23.7924 8.12227 22.6532C7.74123 21.514 7.76549 20.2781 8.19092 19.1548C8.61636 18.0314 9.41685 17.0895 10.4569 16.4885L12.5233 15.2954C17.1478 12.6255 20.3201 8.93811 20.9105 5.94138L30.0274 21.7323C27.137 20.7452 22.3586 21.6482 17.733 24.3188L15.6666 25.5119C15.061 25.8627 14.3901 26.0864 13.6954 26.1717ZM27.4226 17.2206C28.32 16.7025 28.9749 15.8491 29.2431 14.8481C29.5113 13.8472 29.3709 12.7807 28.8527 11.8832C28.3346 10.9858 27.4812 10.331 26.4802 10.0627C25.4793 9.79454 24.4128 9.93495 23.5153 10.4531" stroke="#245DB0" stroke-width="1.7" stroke-linecap="round" stroke-linejoin="round"/>
<path d="M27.5 17.0003L23.5 10.5003C24.8333 10.1668 27.8 10 29 12C30.2 14 28.5 16.1668 27.5 17.0003Z" fill="#245DB0"/>
</g>
</g>
<defs>
<clipPath id="clip0_12900_124093">
<rect width="40" height="40" rx="8" fill="white"/>
</clipPath>
<clipPath id="clip1_12900_124093">
<rect width="31.258" height="31.258" fill="white" transform="translate(-1.34766 14.2794) rotate(-30)"/>
</clipPath>
</defs>
</svg>
