<svg width="66" height="66" viewBox="0 0 66 66" fill="none" xmlns="http://www.w3.org/2000/svg">
<rect width="66" height="66" rx="10.0253" fill="#FFECF9"/>
<path d="M32.9974 35.8346V47.168H21.6641C21.6641 44.1622 22.8581 41.2795 24.9835 39.1541C27.1089 37.0287 29.9916 35.8346 32.9974 35.8346ZM41.4974 46.4596L37.3338 48.6484L38.1286 44.0131L34.7611 40.7292L39.4163 40.0521L41.4974 35.8346L43.5799 40.0521L48.2336 40.7292L44.8662 44.0131L45.6596 48.6484L41.4974 46.4596ZM32.9974 34.418C28.3011 34.418 24.4974 30.6142 24.4974 25.918C24.4974 21.2217 28.3011 17.418 32.9974 17.418C37.6936 17.418 41.4974 21.2217 41.4974 25.918C41.4974 30.6142 37.6936 34.418 32.9974 34.418Z" fill="#EC769E"/>
</svg>
