<svg width="66" height="66" viewBox="0 0 66 66" fill="none" xmlns="http://www.w3.org/2000/svg">
<rect width="66" height="66" rx="10.0253" fill="#FFF6C9"/>
<path d="M38.1275 26.2211C38.1541 26.4336 38.0213 26.593 37.8619 26.7258C37.2244 27.257 36.5603 27.8148 35.9228 28.3195C35.7369 28.4523 35.7103 28.5852 35.7635 28.8242C35.976 29.6211 36.1619 30.418 36.3478 31.2148C36.4275 31.507 36.3478 31.7727 36.1088 31.9586C35.8963 32.118 35.6041 32.118 35.3119 31.932C34.5947 31.4805 33.851 31.0289 33.1338 30.5508C32.9744 30.4445 32.8682 30.4445 32.7088 30.5508C32.0182 31.0023 31.3275 31.4273 30.6369 31.8523C30.451 31.9852 30.2385 32.0383 29.9994 31.9852C29.6541 31.9055 29.4416 31.5602 29.5478 31.1883C29.7603 30.3117 29.9728 29.4617 30.2119 28.5852C30.2385 28.4523 30.2119 28.3727 30.1322 28.293C29.5213 27.7883 28.9103 27.257 28.2994 26.7523C28.0603 26.5664 27.8744 26.3805 27.901 26.0352C27.9275 25.7164 28.1666 25.4508 28.5119 25.4242C29.415 25.3711 30.3182 25.2914 31.2213 25.2383C31.3541 25.2383 31.4072 25.1586 31.4603 25.0523C31.7525 24.3086 32.0713 23.5648 32.39 22.7945C32.4166 22.7148 32.4432 22.6617 32.4697 22.582C32.6025 22.3164 32.815 22.1836 33.0807 22.1836C33.3728 22.1836 33.5588 22.343 33.6916 22.6086C34.0103 23.4055 34.3291 24.2289 34.6478 25.0258C34.701 25.1852 34.7807 25.2648 34.9666 25.2648C35.7635 25.318 36.5603 25.3711 37.3307 25.4242C37.4369 25.4242 37.5697 25.4508 37.676 25.4773C37.9682 25.6367 38.1275 25.8758 38.1275 26.2211Z" fill="#F4BF02"/>
<path d="M33.2438 38.8655L29.4984 48.7733C28.7016 48.0827 27.9578 47.1796 27.2938 46.0374C27.2141 45.9046 27.0813 45.8514 26.9219 45.878C25.6469 46.1967 24.3984 46.3827 23.2031 46.3827L26.55 37.5108C26.6562 37.5108 26.7625 37.5108 26.8688 37.4842C27.2938 37.4311 27.7188 37.5374 28.0641 37.7499C28.3031 37.9092 28.5156 38.1217 28.6484 38.3608C28.9938 38.9452 29.5781 39.3702 30.2422 39.503C30.4016 39.5296 30.5875 39.5561 30.7469 39.5561C31.2516 39.5561 31.7563 39.3967 32.1813 39.1046C32.4203 38.9452 32.6859 38.8124 32.9781 38.7858C33.0844 38.8389 33.1641 38.8389 33.2438 38.8655Z" fill="#F4BF02"/>
<path d="M42.8031 47.6047C41.6078 47.6047 40.3594 47.4453 39.0844 47.1C38.9516 47.0734 38.7922 47.1266 38.7125 47.2594C38.0484 48.4016 37.3047 49.2781 36.5078 49.9953L33.4531 41.9203L34.3828 39.45C34.8078 39.6094 35.2859 39.6359 35.7375 39.5297C36.4016 39.3969 36.9859 38.9719 37.3313 38.3875C37.4641 38.1484 37.6766 37.9359 37.9156 37.7766C38.2344 37.5641 38.6063 37.4844 38.9781 37.4844L42.8031 47.6047Z" fill="#F4BF02"/>
<path d="M43.4111 25.7164C43.0126 25.4242 42.6939 25.0523 42.4548 24.6008C42.1095 23.9102 42.0298 23.1664 42.1627 22.4492C42.2955 21.8383 41.8705 21.2008 41.233 21.1211C40.7548 21.068 40.2767 20.882 39.8517 20.5898C39.2142 20.1383 38.7892 19.5273 38.5767 18.8367C38.4173 18.2258 37.7267 17.8805 37.1423 18.1195C36.7173 18.2789 36.2126 18.3586 35.708 18.3055C34.9376 18.2258 34.247 17.8805 33.7689 17.3492C33.5564 17.1367 33.2642 17.0039 32.9986 17.0039C32.733 17.0039 32.4408 17.1102 32.2283 17.3227C31.7236 17.8539 31.0595 18.1992 30.2892 18.2789C29.7845 18.3586 29.2798 18.2789 28.8283 18.1195C28.2439 17.907 27.5533 18.2258 27.3939 18.8367C27.208 19.5273 26.7564 20.1648 26.1189 20.5898C25.6939 20.882 25.2158 21.0414 24.7376 21.1211C24.1001 21.2008 23.6751 21.8117 23.808 22.4492C23.9673 23.1398 23.8876 23.9102 23.5158 24.6008C23.2767 25.0523 22.958 25.4242 22.5595 25.7164C22.0548 26.0883 21.9486 26.832 22.3736 27.3102C22.8517 27.868 23.1439 28.5586 23.1439 29.3289C23.1439 29.8336 23.0376 30.3383 22.8251 30.7633C22.5595 31.3211 22.8251 32.0383 23.4095 32.2508C24.0736 32.5164 24.658 32.9945 25.0564 33.6852C25.2955 34.1367 25.4283 34.6148 25.4548 35.093C25.4814 35.7305 26.0658 36.2086 26.6767 36.1289C27.3939 36.0492 28.1376 36.182 28.7751 36.607C29.2001 36.8727 29.5455 37.2445 29.7845 37.6695C30.1033 38.2273 30.847 38.3602 31.3517 38.0148C31.8033 37.6961 32.3611 37.4836 32.9455 37.4305C33.5298 37.4836 34.0876 37.6695 34.5392 38.0148C35.0705 38.3867 35.7876 38.2273 36.1064 37.6695C36.3455 37.2445 36.6908 36.8992 37.1158 36.607C37.7798 36.182 38.5236 36.0492 39.2142 36.1289C39.8517 36.2086 40.4095 35.7305 40.4361 35.093C40.4627 34.6148 40.5955 34.1367 40.8345 33.6852C41.2064 32.9945 41.7908 32.5164 42.4814 32.2508C43.0658 32.0117 43.358 31.3211 43.0658 30.7633C42.8533 30.3383 42.747 29.8336 42.747 29.3289C42.747 28.5586 43.0392 27.8414 43.5173 27.3102C44.022 26.832 43.9158 26.0883 43.4111 25.7164ZM32.9986 34.5883C29.147 34.5883 26.0392 31.4539 26.0392 27.6289C26.0392 23.7773 29.1736 20.6695 32.9986 20.6695C36.8501 20.6695 39.958 23.8039 39.958 27.6289C39.958 31.4539 36.8501 34.5883 32.9986 34.5883Z" fill="#F4BF02"/>
</svg>
