<svg width="66" height="66" viewBox="0 0 66 66" fill="none" xmlns="http://www.w3.org/2000/svg">
<rect width="66" height="66" rx="10.0253" fill="#DEEFFF"/>
<g clip-path="url(#clip0_14387_105582)">
<path d="M38.666 15.584H25.9993C23.8143 15.584 22.041 17.3573 22.041 19.5423V46.459C22.041 48.644 23.8143 50.4173 25.9993 50.4173H38.666C40.851 50.4173 42.6243 48.644 42.6243 46.459V19.5423C42.6243 17.3573 40.851 15.584 38.666 15.584ZM32.3327 48.834C31.0185 48.834 29.9577 47.7732 29.9577 46.459C29.9577 45.1448 31.0185 44.084 32.3327 44.084C33.6468 44.084 34.7077 45.1448 34.7077 46.459C34.7077 47.7732 33.6468 48.834 32.3327 48.834ZM39.4577 42.5007H25.2077V20.334H39.4577V42.5007Z" fill="#50A0F2"/>
</g>
<defs>
<clipPath id="clip0_14387_105582">
<rect width="38" height="38" fill="white" transform="translate(14.125 14)"/>
</clipPath>
</defs>
</svg>
